<svg width="20" height="20" viewBox="0 0 20 20" fill="none" xmlns="http://www.w3.org/2000/svg">
<mask id="mask0_459_2229" style="mask-type:alpha" maskUnits="userSpaceOnUse" x="0" y="0" width="20" height="20">
<rect width="20" height="20" fill="#D9D9D9"/>
</mask>
<g mask="url(#mask0_459_2229)">
<path d="M5.5044 12.25C5.29313 12.25 5.11458 12.1785 4.96875 12.0356C4.82292 11.8927 4.75 11.7156 4.75 11.5044C4.75 11.2931 4.82145 11.1146 4.96435 10.9688C5.10727 10.8229 5.28435 10.75 5.4956 10.75C5.70687 10.75 5.88542 10.8215 6.03125 10.9644C6.17708 11.1073 6.25 11.2844 6.25 11.4956C6.25 11.7069 6.17855 11.8854 6.03565 12.0312C5.89273 12.1771 5.71565 12.25 5.5044 12.25ZM5.5044 15.25C5.29313 15.25 5.11458 15.1785 4.96875 15.0356C4.82292 14.8927 4.75 14.7156 4.75 14.5044C4.75 14.2931 4.82145 14.1146 4.96435 13.9688C5.10727 13.8229 5.28435 13.75 5.4956 13.75C5.70687 13.75 5.88542 13.8215 6.03125 13.9644C6.17708 14.1073 6.25 14.2844 6.25 14.4956C6.25 14.7069 6.17855 14.8854 6.03565 15.0312C5.89273 15.1771 5.71565 15.25 5.5044 15.25ZM5.5044 9.25C5.29313 9.25 5.11458 9.17855 4.96875 9.03565C4.82292 8.89273 4.75 8.71565 4.75 8.5044C4.75 8.29313 4.82145 8.11458 4.96435 7.96875C5.10727 7.82292 5.28435 7.75 5.4956 7.75C5.70687 7.75 5.88542 7.82145 6.03125 7.96435C6.17708 8.10727 6.25 8.28435 6.25 8.4956C6.25 8.70687 6.17855 8.88542 6.03565 9.03125C5.89273 9.17708 5.71565 9.25 5.5044 9.25ZM3 9C2.86667 9 2.75 8.95 2.65 8.85C2.55 8.75 2.5 8.63333 2.5 8.5C2.5 8.36667 2.55 8.25 2.65 8.15C2.75 8.05 2.86667 8 3 8C3.13333 8 3.25 8.05 3.35 8.15C3.45 8.25 3.5 8.36667 3.5 8.5C3.5 8.63333 3.45 8.75 3.35 8.85C3.25 8.95 3.13333 9 3 9ZM5.5044 6.25C5.29313 6.25 5.11458 6.17855 4.96875 6.03565C4.82292 5.89273 4.75 5.71565 4.75 5.5044C4.75 5.29313 4.82145 5.11458 4.96435 4.96875C5.10727 4.82292 5.28435 4.75 5.4956 4.75C5.70687 4.75 5.88542 4.82145 6.03125 4.96435C6.17708 5.10727 6.25 5.28435 6.25 5.4956C6.25 5.70687 6.17855 5.88542 6.03565 6.03125C5.89273 6.17708 5.71565 6.25 5.5044 6.25ZM3 12C2.86667 12 2.75 11.95 2.65 11.85C2.55 11.75 2.5 11.6333 2.5 11.5C2.5 11.3667 2.55 11.25 2.65 11.15C2.75 11.05 2.86667 11 3 11C3.13333 11 3.25 11.05 3.35 11.15C3.45 11.25 3.5 11.3667 3.5 11.5C3.5 11.6333 3.45 11.75 3.35 11.85C3.25 11.95 3.13333 12 3 12ZM8.5 17.5C8.36667 17.5 8.25 17.45 8.15 17.35C8.05 17.25 8 17.1333 8 17C8 16.8667 8.05 16.75 8.15 16.65C8.25 16.55 8.36667 16.5 8.5 16.5C8.63333 16.5 8.75 16.55 8.85 16.65C8.95 16.75 9 16.8667 9 17C9 17.1333 8.95 17.25 8.85 17.35C8.75 17.45 8.63333 17.5 8.5 17.5ZM8.5 3.5C8.36667 3.5 8.25 3.45 8.15 3.35C8.05 3.25 8 3.13333 8 3C8 2.86667 8.05 2.75 8.15 2.65C8.25 2.55 8.36667 2.5 8.5 2.5C8.63333 2.5 8.75 2.55 8.85 2.65C8.95 2.75 9 2.86667 9 3C9 3.13333 8.95 3.25 8.85 3.35C8.75 3.45 8.63333 3.5 8.5 3.5ZM8.5044 6.25C8.29313 6.25 8.11458 6.17855 7.96875 6.03565C7.82292 5.89273 7.75 5.71565 7.75 5.5044C7.75 5.29313 7.82145 5.11458 7.96435 4.96875C8.10727 4.82292 8.28435 4.75 8.4956 4.75C8.70687 4.75 8.88542 4.82145 9.03125 4.96435C9.17708 5.10727 9.25 5.28435 9.25 5.4956C9.25 5.70687 9.17855 5.88542 9.03565 6.03125C8.89273 6.17708 8.71565 6.25 8.5044 6.25ZM8.5 12.5C8.22222 12.5 7.98611 12.4028 7.79167 12.2083C7.59722 12.0139 7.5 11.7778 7.5 11.5C7.5 11.2222 7.59722 10.9861 7.79167 10.7917C7.98611 10.5972 8.22222 10.5 8.5 10.5C8.77778 10.5 9.01389 10.5972 9.20833 10.7917C9.40278 10.9861 9.5 11.2222 9.5 11.5C9.5 11.7778 9.40278 12.0139 9.20833 12.2083C9.01389 12.4028 8.77778 12.5 8.5 12.5ZM8.5 9.5C8.22222 9.5 7.98611 9.40278 7.79167 9.20833C7.59722 9.01389 7.5 8.77778 7.5 8.5C7.5 8.22222 7.59722 7.98611 7.79167 7.79167C7.98611 7.59722 8.22222 7.5 8.5 7.5C8.77778 7.5 9.01389 7.59722 9.20833 7.79167C9.40278 7.98611 9.5 8.22222 9.5 8.5C9.5 8.77778 9.40278 9.01389 9.20833 9.20833C9.01389 9.40278 8.77778 9.5 8.5 9.5ZM8.5044 15.25C8.29313 15.25 8.11458 15.1785 7.96875 15.0356C7.82292 14.8927 7.75 14.7156 7.75 14.5044C7.75 14.2931 7.82145 14.1146 7.96435 13.9688C8.10727 13.8229 8.28435 13.75 8.4956 13.75C8.70687 13.75 8.88542 13.8215 9.03125 13.9644C9.17708 14.1073 9.25 14.2844 9.25 14.4956C9.25 14.7069 9.17855 14.8854 9.03565 15.0312C8.89273 15.1771 8.71565 15.25 8.5044 15.25ZM10 17V3C10.9583 3.01389 11.8646 3.20486 12.7188 3.57292C13.5729 3.94097 14.3161 4.44181 14.9484 5.07544C15.5806 5.70905 16.0806 6.44935 16.4484 7.29633C16.8161 8.14332 17 9.04526 17 10.0021C17 10.959 16.8161 11.8606 16.4484 12.7068C16.0806 13.5529 15.5806 14.2925 14.9484 14.9255C14.3161 15.5585 13.5729 16.059 12.7188 16.4271C11.8646 16.7951 10.9583 16.9861 10 17Z" fill="white"/>
</g>
</svg>
