<svg width="20" height="20" viewBox="0 0 20 20" fill="none" xmlns="http://www.w3.org/2000/svg">
<mask id="mask0_459_2170" style="mask-type:alpha" maskUnits="userSpaceOnUse" x="0" y="0" width="20" height="20">
<rect width="20" height="20" fill="#D9D9D9"/>
</mask>
<g mask="url(#mask0_459_2170)">
<path d="M9.25 17.8125L3.75 14.625C3.5125 14.4877 3.32812 14.3068 3.19687 14.0821C3.06562 13.8575 3 13.6079 3 13.3333V6.66667C3 6.39211 3.06562 6.14251 3.19687 5.91787C3.32812 5.69324 3.5125 5.51228 3.75 5.375L9.22917 2.20833C9.46528 2.06944 9.72222 2 10 2C10.2778 2 10.5347 2.06944 10.7708 2.20833L16.25 5.375C16.4875 5.51228 16.6719 5.69324 16.8031 5.91787C16.9344 6.14251 17 6.39211 17 6.66667V13.3333C17 13.6079 16.9344 13.8575 16.8031 14.0821C16.6719 14.3068 16.4875 14.4877 16.25 14.625L10.75 17.8125C10.5121 17.9514 10.2616 18.0208 9.99862 18.0208C9.73565 18.0208 9.48611 17.9514 9.25 17.8125ZM9.25 10.4375V16.0625L10 16.5L10.75 16.0625V10.4375L15.5 7.6875V6.66667L14.875 6.3125L10 9.125L5.10417 6.3125L4.5 6.66667V7.6875L9.25 10.4375Z" fill="white"/>
</g>
</svg>
