<?xml version="1.0" encoding="UTF-8" standalone="no"?>
<!DOCTYPE svg PUBLIC "-//W3C//DTD SVG 1.1//EN" "http://www.w3.org/Graphics/SVG/1.1/DTD/svg11.dtd">

<!-- Created with Vectornator (http://vectornator.io/) -->
<svg height="100%" stroke-miterlimit="10" style="fill-rule:nonzero;clip-rule:evenodd;stroke-linecap:round;stroke-linejoin:round;" version="1.1" viewBox="0 0 1099 166" width="100%" xml:space="preserve" xmlns="http://www.w3.org/2000/svg" xmlns:vectornator="http://vectornator.io" xmlns:xlink="http://www.w3.org/1999/xlink">
<metadata>
<vectornator:setting key="IsTimeLapseWatermarkDisabled" value="false"/>
<vectornator:setting key="UndoHistoryDisabled" value="true"/>
<vectornator:setting key="VNDimensionsVisible" value="true"/>
<vectornator:setting key="VNSnapToGuides" value="true"/>
<vectornator:setting key="WDCMYKEnabledKey" value="false"/>
<vectornator:setting key="WDDisplayWhiteBackground" value="false"/>
<vectornator:setting key="WDDynamicGuides" value="false"/>
<vectornator:setting key="WDGuidesVisible" value="true"/>
<vectornator:setting key="WDIsolateActiveLayer" value="false"/>
<vectornator:setting key="WDOutlineMode" value="false"/>
<vectornator:setting key="WDRulersVisible" value="true"/>
<vectornator:setting key="WDSnapToEdges" value="false"/>
<vectornator:setting key="WDSnapToGrid" value="true"/>
<vectornator:setting key="WDSnapToPoints" value="false"/>
<vectornator:setting key="WDUnits" value="Points"/>
</metadata>
<defs/>
<g id="Untitled" vectornator:layerName="Untitled">
<path d="M83.4082 154.933C123.312 154.933 155.66 122.728 155.66 83C155.66 43.2723 123.312 11.0667 83.4082 11.0667C43.5047 11.0667 11.1566 43.2723 11.1566 83C11.1566 122.728 43.5047 154.933 83.4082 154.933ZM340.985 60.4703C348.695 60.4703 354.992 63.3316 359.8 69.0272C364.572 74.6792 366.961 81.4136 366.961 89.1899C366.961 97.4113 364.615 104.406 359.923 110.135C355.187 115.916 348.695 118.816 340.531 118.816C336.723 118.816 333.165 117.865 329.872 115.967C327.332 114.503 325.112 112.636 323.215 110.366L323.202 110.366L323.202 147.361L311.032 147.361L311.032 62.0561L323.202 62.0561L323.202 69.1456L323.237 69.1456L324.116 68.0979C328.59 63.0271 334.231 60.4703 340.985 60.4703ZM405.218 62.0561L405.492 62.569L422.571 94.564L438.432 62.5942L438.7 62.0561L452.373 62.0561L451.644 63.4658L408.567 146.837L408.296 147.361L394.5 147.361L395.253 145.942L415.946 107.028L391.852 63.4901L391.058 62.0561L405.218 62.0561ZM281.541 60.4703C293.886 60.4703 300.129 68.5779 300.129 84.3191L300.129 117.003L287.959 117.003L287.959 86.0182C287.959 84.0161 287.866 82.261 287.681 80.7546C287.502 79.2865 287.104 77.7377 286.487 76.1084C285.914 74.5978 285.022 73.4612 283.798 72.6699C282.564 71.8725 280.985 71.4664 279.04 71.4664C277.083 71.4664 275.453 71.8596 274.134 72.635C272.784 73.4286 271.76 74.3808 271.05 75.4929C270.317 76.6417 269.731 78.1104 269.3 79.9004C268.857 81.7406 268.581 83.3894 268.471 84.8445C268.36 86.329 268.304 88.0422 268.304 89.9829L268.304 117.003L256.133 117.003L256.129 86.904C256.117 85.5659 256.081 84.4219 256.022 83.4732C255.949 82.3093 255.746 80.8365 255.411 79.06C255.09 77.3533 254.634 76.0251 254.058 75.0791C253.494 74.1541 252.633 73.3125 251.462 72.5572C250.338 71.8327 248.968 71.4664 247.329 71.4664C244.939 71.4664 242.99 71.9992 241.458 73.0515C239.931 74.0997 238.845 75.5872 238.19 77.5451C237.49 79.6379 237.032 81.5947 236.813 83.4148C236.59 85.2613 236.478 87.4514 236.478 89.9829L236.478 117.003L224.308 117.003L224.308 62.0561L236.478 62.0561L236.476 67.0419L237.314 66.1191C238.186 65.2135 239.154 64.3898 240.216 63.6484L241.31 62.9346C243.999 61.2949 246.844 60.4703 249.829 60.4703C256.286 60.4703 261.43 63.3415 265.179 69.0111C266.848 66.6149 268.996 64.6585 271.622 63.1484C274.724 61.365 278.036 60.4703 281.541 60.4703ZM210.223 62.0561L210.223 117.003L198.053 117.003L198.053 62.0561L210.223 62.0561ZM387.647 16.7456L387.647 117.003L375.477 117.003L375.477 16.7456L387.647 16.7456ZM338.485 71.4664C333.695 71.4664 329.899 73.2083 327.017 76.7189C324.093 80.2805 322.633 84.5378 322.633 89.5298C322.633 94.6015 324.077 98.9187 326.967 102.519C329.811 106.061 333.622 107.82 338.485 107.82C343.584 107.82 347.532 106.091 350.41 102.62C353.33 99.0993 354.791 94.7493 354.791 89.5298C354.791 84.39 353.314 80.1 350.36 76.6175C347.443 73.1786 343.511 71.4664 338.485 71.4664ZM204.138 30.6786C206.369 30.6786 208.287 31.4823 209.834 33.0669C211.375 34.6448 212.155 36.5672 212.155 38.782C212.155 40.9277 211.37 42.7969 209.825 44.3366C208.278 45.8784 206.364 46.6588 204.138 46.6588C201.912 46.6588 199.998 45.8784 198.451 44.3366C196.906 42.7969 196.121 40.9277 196.121 38.782C196.121 36.5672 196.901 34.6448 198.441 33.0669C199.988 31.4823 201.906 30.6786 204.138 30.6786Z" fill="#ffffff" fill-rule="evenodd" opacity="1" stroke="none"/>
<path d="M129.882 76.94C128.412 76.26 126.762 75.44 124.982 74.49C119.729 71.7106 114.727 68.4819 110.032 64.84C101.722 58.36 95.5116 51.15 92.1116 43.33L89.7916 38L78.9316 42.21C78.9596 42.3304 78.9998 42.4477 79.0516 42.56C79.6216 43.89 80.2316 45.21 80.7916 46.56C83.2089 52.1793 86.4958 57.383 90.5316 61.98C91.0196 62.3872 91.4035 62.9048 91.6516 63.49C91.5659 63.5662 91.4678 63.6271 91.3616 63.67C91.5216 63.85 91.6816 64.04 91.8516 64.22L36.0116 64.22C36.0071 64.2465 36.0071 64.2735 36.0116 64.3C36.0116 64.73 36.0116 65.16 36.0116 65.58C36.0116 68.05 36.0116 70.51 36.0116 72.98C36.0116 75.65 35.7016 75.3 38.2916 75.3C60.0916 75.3 81.8949 75.3 103.702 75.3C104.712 75.268 105.704 75.582 106.512 76.19C109.28 78.2162 112.195 80.0346 115.232 81.63C115.702 81.88 116.182 82.13 116.632 82.4C116.832 82.53 116.912 82.76 116.632 82.92L116.782 83C112.881 85.0826 109.141 87.4524 105.592 90.09L36.0416 90.09C36.0312 90.1563 36.0312 90.2237 36.0416 90.29C36.0416 90.72 36.0416 91.15 36.0416 91.57C36.0416 94.09 36.0416 96.61 36.0416 99.13C36.0416 101.62 35.7816 101.3 38.1416 101.3L90.5316 101.3C91.0116 101.3 91.5316 101.3 91.9816 101.3C92.082 101.307 92.1755 101.354 92.2416 101.43C92.2583 101.479 92.2583 101.531 92.2416 101.58L92.3416 101.58L92.2016 101.73C92.1833 101.775 92.1561 101.816 92.1216 101.85C91.0716 103.07 90.0116 104.27 88.9716 105.5C84.7999 110.688 81.4292 116.473 78.9716 122.66C78.7716 123.13 78.8616 123.33 79.3416 123.54C80.1716 123.9 81.0216 124.23 81.8716 124.54C84.3016 125.54 86.7216 126.54 89.1616 127.54C89.3606 127.647 89.5868 127.692 89.8116 127.67L92.0716 122.67C95.5216 115.09 101.742 107.96 109.972 101.45C110.562 100.99 111.172 100.55 111.772 100.09L112.582 99.49C113.092 99.11 113.582 98.73 114.122 98.36C115.122 97.64 116.122 96.94 117.192 96.25L117.502 96.04L118.502 95.37C122.538 92.7368 126.759 90.3974 131.132 88.37C131.326 88.2763 131.511 88.1624 131.682 88.03L131.572 77.67C131.322 77.59 130.722 77.33 129.882 76.94Z" fill="#008adc" fill-rule="evenodd" opacity="1" stroke="none"/>
<path d="M920.495 81.292C920.495 90.2168 918.833 97.6782 915.508 103.676C912.184 109.638 907.36 114.136 901.037 117.171C894.714 120.17 887.09 121.67 878.165 121.67L856.16 121.67L856.16 42.4311L880.55 42.4311C888.752 42.4311 895.834 43.9126 901.796 46.8755C907.758 49.8022 912.365 54.1562 915.617 59.9375C918.869 65.6826 920.495 72.8008 920.495 81.292ZM906.945 81.6714C906.945 75.1675 905.915 69.8198 903.856 65.6284C901.832 61.437 898.833 58.3296 894.858 56.3061C890.92 54.2466 886.06 53.2168 880.279 53.2168L869.168 53.2168L869.168 110.776L878.382 110.776C887.957 110.776 895.111 108.337 899.845 103.459C904.578 98.5815 906.945 91.3188 906.945 81.6714Z" fill="#99d0f1" fill-rule="evenodd" opacity="1" stroke="none"/>
<path d="M989.382 90.4516C989.382 95.438 988.732 99.8642 987.431 103.73C986.13 107.596 984.233 110.866 981.74 113.54C979.247 116.178 976.248 118.201 972.743 119.61C969.238 120.983 965.281 121.67 960.873 121.67C956.754 121.67 952.978 120.983 949.546 119.61C946.113 118.201 943.132 116.178 940.603 113.54C938.109 110.866 936.176 107.596 934.803 103.73C933.43 99.8642 932.744 95.438 932.744 90.4516C932.744 83.8393 933.882 78.2387 936.158 73.6499C938.471 69.0249 941.759 65.5019 946.023 63.081C950.286 60.6601 955.363 59.4497 961.253 59.4497C966.781 59.4497 971.659 60.6601 975.886 63.081C980.114 65.5019 983.42 69.0249 985.805 73.6499C988.19 78.2749 989.382 83.8755 989.382 90.4516ZM945.86 90.4516C945.86 94.8237 946.384 98.5635 947.432 101.671C948.516 104.778 950.178 107.163 952.418 108.825C954.658 110.451 957.549 111.264 961.09 111.264C964.631 111.264 967.522 110.451 969.762 108.825C972.002 107.163 973.646 104.778 974.694 101.671C975.742 98.5635 976.266 94.8237 976.266 90.4516C976.266 86.0796 975.742 82.376 974.694 79.3408C973.646 76.2695 972.002 73.9389 969.762 72.3491C967.522 70.7231 964.613 69.9101 961.036 69.9101C955.76 69.9101 951.912 71.6806 949.491 75.2217C947.07 78.7627 945.86 83.8393 945.86 90.4516Z" fill="#99d0f1" fill-rule="evenodd" opacity="1" stroke="none"/>
<path d="M1028.19 121.67C1022.52 121.67 1017.6 120.568 1013.45 118.364C1009.29 116.16 1006.09 112.781 1003.85 108.229C1001.61 103.676 1000.49 97.895 1000.49 90.8852C1000.49 83.5864 1001.72 77.6245 1004.18 72.9995C1006.63 68.3745 1010.03 64.9599 1014.37 62.7558C1018.74 60.5517 1023.74 59.4497 1029.38 59.4497C1032.96 59.4497 1036.19 59.811 1039.08 60.5337C1042.01 61.2202 1044.48 62.0693 1046.51 63.081L1042.71 73.2705C1040.51 72.3672 1038.25 71.6084 1035.94 70.9941C1033.63 70.3799 1031.4 70.0727 1029.27 70.0727C1025.77 70.0727 1022.84 70.8496 1020.49 72.4033C1018.18 73.957 1016.44 76.2695 1015.29 79.3408C1014.17 82.4121 1013.61 86.2241 1013.61 90.7768C1013.61 95.185 1014.19 98.9067 1015.34 101.942C1016.5 104.94 1018.22 107.217 1020.49 108.771C1022.77 110.288 1025.57 111.047 1028.89 111.047C1032.18 111.047 1035.13 110.649 1037.73 109.855C1040.33 109.06 1042.79 108.03 1045.1 106.765L1045.1 117.822C1042.82 119.123 1040.38 120.08 1037.78 120.694C1035.18 121.345 1031.98 121.67 1028.19 121.67Z" fill="#99d0f1" fill-rule="evenodd" opacity="1" stroke="none"/>
<path d="M1099.51 103.459C1099.51 107.398 1098.56 110.722 1096.64 113.432C1094.73 116.142 1091.93 118.201 1088.24 119.61C1084.59 120.983 1080.11 121.67 1074.8 121.67C1070.61 121.67 1066.99 121.363 1063.96 120.749C1060.96 120.17 1058.12 119.267 1055.45 118.039L1055.45 107.036C1058.3 108.373 1061.5 109.529 1065.04 110.505C1068.62 111.481 1072 111.968 1075.18 111.968C1079.37 111.968 1082.39 111.318 1084.23 110.017C1086.07 108.68 1086.99 106.91 1086.99 104.706C1086.99 103.405 1086.61 102.249 1085.86 101.237C1085.13 100.189 1083.76 99.1235 1081.74 98.0395C1079.75 96.9194 1076.82 95.5825 1072.96 94.0288C1069.16 92.5112 1065.96 90.9936 1063.36 89.476C1060.76 87.9585 1058.79 86.1338 1057.46 84.0019C1056.12 81.834 1055.45 79.0698 1055.45 75.7094C1055.45 70.3979 1057.55 66.3691 1061.74 63.623C1065.96 60.8408 1071.55 59.4497 1078.48 59.4497C1082.17 59.4497 1085.64 59.8291 1088.89 60.5879C1092.18 61.3105 1095.4 62.3764 1098.54 63.7856L1094.53 73.3789C1091.82 72.1865 1089.09 71.2109 1086.34 70.4521C1083.63 69.6572 1080.87 69.2597 1078.05 69.2597C1074.76 69.2597 1072.25 69.7656 1070.52 70.7773C1068.82 71.789 1067.97 73.2343 1067.97 75.1133C1067.97 76.5224 1068.39 77.7148 1069.22 78.6904C1070.05 79.666 1071.48 80.6416 1073.5 81.6172C1075.56 82.5927 1078.41 83.8032 1082.06 85.2485C1085.64 86.6216 1088.73 88.0669 1091.33 89.5844C1093.97 91.0659 1095.99 92.8906 1097.4 95.0586C1098.81 97.2265 1099.51 100.027 1099.51 103.459Z" fill="#99d0f1" fill-rule="evenodd" opacity="1" stroke="none"/>
<path d="M496.277 42.4311C506.503 42.4311 513.964 44.5268 518.661 48.7183C523.358 52.9097 525.707 58.7812 525.707 66.333C525.707 69.7656 525.165 73.0356 524.081 76.1431C523.033 79.2143 521.299 81.9424 518.878 84.3271C516.457 86.6758 513.259 88.5366 509.285 89.9097C505.346 91.2827 500.486 91.9692 494.705 91.9692L486.25 91.9692L486.25 121.67L473.242 121.67L473.242 42.4311L496.277 42.4311ZM495.41 53.2168L486.25 53.2168L486.25 81.1294L493.35 81.1294C497.433 81.1294 500.902 80.6597 503.756 79.7202C506.611 78.7446 508.779 77.209 510.26 75.1133C511.742 73.0176 512.482 70.2534 512.482 66.8208C512.482 62.2319 511.091 58.8174 508.309 56.5771C505.563 54.3369 501.263 53.2168 495.41 53.2168Z" fill="#ffffff" fill-rule="evenodd" opacity="1" stroke="none"/>
<path d="M593.348 90.4516C593.348 95.438 592.697 99.8642 591.397 103.73C590.096 107.596 588.199 110.866 585.706 113.54C583.212 116.178 580.213 118.201 576.709 119.61C573.204 120.983 569.247 121.67 564.839 121.67C560.72 121.67 556.944 120.983 553.511 119.61C550.079 118.201 547.098 116.178 544.568 113.54C542.075 110.866 540.142 107.596 538.769 103.73C537.396 99.8642 536.71 95.438 536.71 90.4516C536.71 83.8393 537.848 78.2387 540.124 73.6499C542.437 69.0249 545.725 65.5019 549.988 63.081C554.252 60.6601 559.329 59.4497 565.218 59.4497C570.747 59.4497 575.625 60.6601 579.852 63.081C584.08 65.5019 587.386 69.0249 589.771 73.6499C592.155 78.2749 593.348 83.8755 593.348 90.4516ZM549.826 90.4516C549.826 94.8237 550.35 98.5635 551.398 101.671C552.482 104.778 554.144 107.163 556.384 108.825C558.624 110.451 561.515 111.264 565.056 111.264C568.597 111.264 571.487 110.451 573.728 108.825C575.968 107.163 577.612 104.778 578.66 101.671C579.708 98.5635 580.232 94.8237 580.232 90.4516C580.232 86.0796 579.708 82.376 578.66 79.3408C577.612 76.2695 575.968 73.9389 573.728 72.3491C571.487 70.7231 568.579 69.9101 565.002 69.9101C559.726 69.9101 555.878 71.6806 553.457 75.2217C551.036 78.7627 549.826 83.8393 549.826 90.4516Z" fill="#ffffff" fill-rule="evenodd" opacity="1" stroke="none"/>
<path d="M620.773 121.67L607.982 121.67L607.982 37.3364L620.773 37.3364L620.773 121.67Z" fill="#ffffff" fill-rule="evenodd" opacity="1" stroke="none"/>
<path d="M662.506 59.4497C670.094 59.4497 675.821 61.1299 679.687 64.4902C683.589 67.8506 685.541 73.0898 685.541 80.208L685.541 120.586L676.489 120.586L674.05 112.077L673.617 112.077C671.919 114.245 670.166 116.033 668.359 117.442C666.553 118.852 664.457 119.899 662.072 120.586C659.724 121.309 656.851 121.67 653.455 121.67C649.878 121.67 646.68 121.02 643.861 119.719C641.043 118.382 638.821 116.358 637.195 113.648C635.569 110.939 634.756 107.506 634.756 103.351C634.756 97.1723 637.05 92.5293 641.639 89.4218C646.264 86.3144 653.238 84.5981 662.56 84.2729L672.966 83.8935L672.966 80.75C672.966 76.5947 671.991 73.6318 670.04 71.8613C668.125 70.0908 665.415 69.2055 661.91 69.2055C658.911 69.2055 656.002 69.6391 653.184 70.5063C650.365 71.3735 647.619 72.4394 644.945 73.7041L640.826 64.707C643.753 63.1533 647.077 61.8886 650.799 60.9131C654.557 59.9375 658.459 59.4497 662.506 59.4497ZM672.912 91.915L665.162 92.186C658.802 92.4028 654.34 93.4868 651.774 95.438C649.209 97.3891 647.926 100.063 647.926 103.459C647.926 106.422 648.812 108.59 650.582 109.963C652.353 111.3 654.683 111.968 657.574 111.968C661.982 111.968 665.631 110.722 668.522 108.229C671.449 105.699 672.912 101.996 672.912 97.1181L672.912 91.915Z" fill="#ffffff" fill-rule="evenodd" opacity="1" stroke="none"/>
<path d="M733.776 60.5337C734.786 60.5337 735.896 60.5879 737.086 60.6963C738.276 60.8047 739.306 60.9492 740.176 61.1299L738.986 73.0537C738.226 72.8369 737.286 72.6743 736.166 72.5659C735.076 72.4575 734.106 72.4033 733.236 72.4033C730.956 72.4033 728.796 72.7827 726.736 73.5415C724.676 74.2642 722.848 75.3843 721.258 76.9018C719.668 78.3833 718.421 80.2441 717.518 82.4844C716.615 84.7246 716.163 87.3262 716.163 90.2891L716.163 121.67L703.372 121.67L703.372 61.6719L713.345 61.6719L715.079 72.2407L715.675 72.2407C716.868 70.1089 718.349 68.1577 720.12 66.3872C721.89 64.6167 723.916 63.2075 726.186 62.1597C728.506 61.0757 731.036 60.5337 733.776 60.5337Z" fill="#ffffff" fill-rule="evenodd" opacity="1" stroke="none"/>
<path d="M764.026 61.6719L764.026 121.67L751.286 121.67L751.286 61.6719L764.026 61.6719ZM757.736 38.6914C759.686 38.6914 761.366 39.2153 762.776 40.2632C764.216 41.311 764.946 43.1177 764.946 45.6831C764.946 48.2124 764.216 50.019 762.776 51.103C761.366 52.1509 759.686 52.6748 757.736 52.6748C755.706 52.6748 753.996 52.1509 752.586 51.103C751.216 50.019 750.526 48.2124 750.526 45.6831C750.526 43.1177 751.216 41.311 752.586 40.2632C753.996 39.2153 755.706 38.6914 757.736 38.6914Z" fill="#ffffff" fill-rule="evenodd" opacity="1" stroke="none"/>
<path d="M822.606 103.459C822.606 107.398 821.656 110.722 819.736 113.432C817.826 116.142 815.026 118.201 811.336 119.61C807.686 120.983 803.206 121.67 797.896 121.67C793.706 121.67 790.086 121.363 787.056 120.749C784.056 120.17 781.216 119.267 778.546 118.039L778.546 107.036C781.396 108.373 784.596 109.529 788.136 110.505C791.716 111.481 795.096 111.968 798.276 111.968C802.466 111.968 805.486 111.318 807.326 110.017C809.166 108.68 810.086 106.91 810.086 104.706C810.086 103.405 809.716 102.249 808.956 101.237C808.226 100.189 806.856 99.1235 804.836 98.0395C802.846 96.9194 799.916 95.5825 796.056 94.0288C792.256 92.5112 789.066 90.9936 786.456 89.476C783.856 87.9585 781.886 86.1338 780.556 84.0019C779.216 81.834 778.546 79.0698 778.546 75.7094C778.546 70.3979 780.646 66.3691 784.836 63.623C789.066 60.8408 794.646 59.4497 801.586 59.4497C805.266 59.4497 808.736 59.8291 811.986 60.5879C815.276 61.3105 818.496 62.3764 821.636 63.7856L817.626 73.3789C814.916 72.1865 812.186 71.2109 809.436 70.4521C806.726 69.6572 803.966 69.2597 801.146 69.2597C797.856 69.2597 795.346 69.7656 793.616 70.7773C791.916 71.789 791.066 73.2343 791.066 75.1133C791.066 76.5224 791.486 77.7148 792.316 78.6904C793.146 79.666 794.576 80.6416 796.596 81.6172C798.656 82.5927 801.506 83.8032 805.156 85.2485C808.736 86.6216 811.826 88.0669 814.426 89.5844C817.066 91.0659 819.086 92.8906 820.496 95.0586C821.906 97.2265 822.606 100.027 822.606 103.459Z" fill="#ffffff" fill-rule="evenodd" opacity="1" stroke="none"/>
</g>
</svg>
