<?xml version="1.0" encoding="utf-8"?>
<!-- Generator: Adobe Illustrator 27.3.1, SVG Export Plug-In . SVG Version: 6.00 Build 0)  -->
<svg version="1.1" id="Layer_1" xmlns="http://www.w3.org/2000/svg" xmlns:xlink="http://www.w3.org/1999/xlink" x="0px" y="0px"
	 viewBox="0 0 225.5 73.7" style="enable-background:new 0 0 225.5 73.7;" xml:space="preserve">
<style type="text/css">
	.st0{fill:#FFFFFF;}
	.st1{fill-rule:evenodd;clip-rule:evenodd;fill:#0D7DE0;}
	.st2{fill:#0D7DE0;}
</style>
<circle class="st0" cx="36.2" cy="37.2" r="31"/>
<path class="st1" d="M74,36.8c0,20.2-16.5,36.7-36.9,36.7c-20.4,0-36.9-16.4-36.9-36.7S16.6,0.2,37,0.2S74,16.6,74,36.8L74,36.8z
	 M35.8,55.6l1.1-2.4c1.2-2.7,3-5.2,5.2-7.6H16.2v-5.3h32c2-1.4,3.1-2.1,5.1-3.2c-2.2-1.2-3.3-1.8-5.4-3.3H16.2v-5.3h25.7
	c-2.1-2.3-3.8-4.8-5.1-7.6l-1-2.4l5.2-2l1,2.4c1.6,3.6,4.4,6.9,8.2,9.9c2.2,1.7,4.5,3.2,6.9,4.4c0.3,0.1,0.6,0.3,0.8,0.4
	c0.5,0.2,1,0.5,1.4,0.7c0.2,0.1,0.4,0.2,0.5,0.2c0.1,0,0.2,0.1,0.3,0.1v4.8c0,0-0.1,0.1-0.3,0.1c-0.1,0.1-0.3,0.1-0.5,0.2
	c-0.7,0.3-1.4,0.7-2.2,1.1L57.2,41c-2.4,1.3-4.7,2.9-6.9,4.6c-3.8,3-6.7,6.3-8.2,9.7l-1.1,2.4L35.8,55.6z"/>
<path class="st1" d="M162.6,53.8c-1.3-0.8-2.4-1.7-3.4-2.9l0.1,18.3v0.5h-6.2V26.4h6.2V30c2.3-2.9,5.4-4.4,9.1-4.4
	c3.9,0,7.2,1.4,9.6,4.3c2.4,2.9,3.7,6.3,3.7,10.2c0,4.2-1.2,7.7-3.6,10.6c-2.4,2.9-5.8,4.4-9.9,4.4
	C166.1,55.2,164.3,54.7,162.6,53.8L162.6,53.8z M161.1,46.9c1.5,1.8,3.4,2.7,5.9,2.7c2.6,0,4.6-0.8,6.1-2.6c1.5-1.8,2.3-4,2.3-6.6
	c0-2.6-0.8-4.8-2.3-6.5c-1.5-1.7-3.5-2.6-6.1-2.6c-2.5,0-4.4,0.9-5.9,2.7c-1.5,1.8-2.3,3.9-2.3,6.5
	C158.9,42.9,159.6,45.1,161.1,46.9L161.1,46.9z"/>
<path class="st2" d="M130,29.5c-1.9-2.9-4.6-4.4-7.9-4.4c-1.5,0-3,0.4-4.4,1.3c-1,0.6-1.8,1.3-2.5,2.1V26h-6.2v28.1h6.2V40.3
	c0-1.3,0.1-2.4,0.2-3.4c0.1-0.9,0.3-1.9,0.7-3c0.3-1,0.9-1.8,1.6-2.3c0.8-0.6,1.8-0.8,3-0.8c0.8,0,1.5,0.2,2.1,0.6
	c0.6,0.4,1,0.8,1.3,1.3c0.3,0.5,0.5,1.2,0.7,2c0.2,0.9,0.3,1.7,0.3,2.3c0,0.6,0.1,1.4,0.1,2.3v14.8h6.2V40.3c0-1,0-1.9,0.1-2.6
	c0-0.7,0.2-1.6,0.4-2.5c0.2-0.9,0.5-1.7,0.9-2.3c0.4-0.6,0.9-1.1,1.6-1.5s1.5-0.6,2.5-0.6c1,0,1.8,0.2,2.4,0.6
	c0.6,0.4,1.1,1,1.4,1.8c0.3,0.8,0.5,1.6,0.6,2.4c0.1,0.8,0.1,1.7,0.1,2.7v15.8h6.2V37.4c0-8.1-3.2-12.2-9.5-12.2
	c-1.8,0-3.5,0.5-5.1,1.4C132,27.3,130.9,28.3,130,29.5L130,29.5L130,29.5z"/>
<path class="st2" d="M101.7,26.5V26h-6.2v28h6.2V26.5z"/>
<path class="st2" d="M98.6,10.5c-1.1,0-2,0.4-2.8,1.2c-0.8,0.8-1.1,1.8-1.1,2.9c0,1.1,0.4,2.1,1.1,2.9c0.8,0.8,1.7,1.2,2.8,1.2
	c1.1,0,2-0.4,2.8-1.2c0.8-0.8,1.1-1.8,1.1-2.9s-0.4-2.1-1.1-2.9C100.7,10.9,99.7,10.5,98.6,10.5z"/>
<path class="st2" d="M192.2,4.1V3.6h-6.2v50.9h6.2V4.1z"/>
<path class="st2" d="M196.1,68.9l-0.4,0.7h7l0.1-0.3l21.9-42.5l0.4-0.7h-7l-0.1,0.3l-8,16.3l-8.7-16.3l-0.1-0.2H194l0.4,0.7
	L206.7,49L196.1,68.9L196.1,68.9z"/>
</svg>
